<svg width="64" height="64" viewBox="0 0 64 64" fill="none" xmlns="http://www.w3.org/2000/svg">
<path fill-rule="evenodd" clip-rule="evenodd" d="M5.00004 28.5324C4.98797 21.7927 7.42407 15.2834 11.8453 10.2417C16.2664 5.20864 22.3568 1.98827 28.9655 1.18921C35.5778 0.400979 42.2464 2.09263 47.7088 5.94392C53.1673 9.7983 57.039 15.544 58.5906 22.0928C55.2456 22.6497 41.6539 24.9485 37.7302 24.9485C33.8696 24.7066 30.0922 23.7076 26.6084 22.0071H12.4099C12.5802 22.62 12.9415 23.1608 13.4402 23.5492C13.9397 23.9489 14.5537 24.1743 15.1903 24.1917H23.2352L11.1678 28.4753L11.563 28.8465C11.9956 29.3666 12.573 29.7428 13.22 29.9262C13.867 30.1095 14.5536 30.0915 15.1903 29.8745C16.39 29.6318 25.07 26.2335 25.07 26.2335L9.3189 37.5563C9.9284 37.9697 10.6336 38.2157 11.3654 38.2702C12.0934 38.3238 12.8227 38.1861 13.4825 37.8704L23.3622 31.0025L21.8238 35.3717L32.1693 49.4502C33.8242 46.9767 35.6846 44.6504 37.7302 42.4966C38.4924 41.7542 39.2545 41.0688 40.0026 40.2121C44.5049 35.6002 49.3036 30.7027 59.3386 30.7027V63.8714H5.00004V28.5324ZM34.0183 52.5915C34.0151 52.9618 33.9074 53.3234 33.7077 53.6338C33.4991 53.9367 33.2106 54.1741 32.875 54.3192C32.5352 54.4595 32.1618 54.4942 31.8024 54.4191C31.4424 54.3504 31.1121 54.1709 30.8567 53.9051C30.5962 53.6451 30.4191 53.3117 30.3486 52.9484C30.2752 52.5848 30.3096 52.2073 30.4474 51.8633C30.5919 51.5203 30.8323 51.2275 31.139 51.0209C31.4448 50.8167 31.803 50.7075 32.1693 50.7067C32.4111 50.7115 32.6501 50.7598 32.875 50.8495C33.1007 50.9487 33.3065 51.089 33.4819 51.2636C33.6518 51.4404 33.786 51.6489 33.8771 51.8776C33.9725 52.1081 34.0205 52.3559 34.0183 52.6058V52.5915ZM37.7302 35.4574C37.7302 38.5701 32.1693 44.1958 32.1693 44.1958C32.1693 44.1958 26.6084 38.5701 26.6084 35.4574C26.6062 34.7179 26.7484 33.9853 27.027 33.3017C27.3055 32.618 27.7149 31.9968 28.2316 31.4737C28.7486 30.951 29.3627 30.5369 30.0384 30.2551C30.7142 29.9733 31.4384 29.8294 32.1693 29.8317C32.8979 29.8313 33.6194 29.9761 34.2926 30.2578C34.9659 30.5396 35.5776 30.9527 36.093 31.4737C37.1266 32.5147 37.7146 33.9249 37.7302 35.4003V35.4574Z" fill="#FF532D"/>
</svg>
