<svg width="40" height="40" viewBox="0 0 40 40" fill="none" xmlns="http://www.w3.org/2000/svg">
<circle cx="20" cy="20" r="20" fill="#FF532D"/>
  <path d="M28.8232 21C29.3755 21 29.8232 20.5523 29.8232 20C29.8232 19.4477 29.3755 19 28.8232 19V21ZM11.0573 19.2929C10.6668 19.6834 10.6668 20.3166 11.0573 20.7071L17.4213 27.0711C17.8118 27.4616 18.445 27.4616 18.8355 27.0711C19.226 26.6805 19.226 26.0474 18.8355 25.6569L13.1786 20L18.8355 14.3431C19.226 13.9526 19.226 13.3195 18.8355 12.9289C18.445 12.5384 17.8118 12.5384 17.4213 12.9289L11.0573 19.2929ZM28.8232 19H11.7644V21H28.8232V19Z" fill="#ffffff"/>
</svg>
