<svg width="80" height="80" viewBox="0 0 80 80" fill="none" xmlns="http://www.w3.org/2000/svg">
<path d="M27.9538 51.9764L49.8232 30.0033L75.999 56.1162C69.8817 70.1711 55.9168 80 39.6809 80C25.4687 80 12.9967 72.4686 6.00523 61.1639L22.0903 46.0851L27.9538 51.9764Z" fill="#696FE6"/>
<path d="M31.0031 34.0032C33.8153 34.0032 36.0026 31.8158 36.0026 29.0035C36.0026 26.1912 33.8153 24.0038 31.0031 24.0038C28.1908 24.0038 26.0035 26.1912 26.0035 29.0035C26.0035 31.8158 28.347 34.0032 31.0031 34.0032Z" fill="#696FE6"/>
<path fill-rule="evenodd" clip-rule="evenodd" d="M0 40.0028C0 17.369 17.3686 0 40.0018 0C62.6352 0 80 17.3691 80 40.0028C80 42.0636 79.8476 44.0896 79.5534 46.0701L77.5646 45.7746C77.8443 43.8916 77.9893 41.9643 77.9893 40.0028C77.9893 18.4793 61.5245 2.01071 40.0018 2.01071C18.479 2.01071 2.01066 18.4795 2.01066 40.0028C2.01066 41.9643 2.15567 43.8916 2.4354 45.7746L0.446564 46.0701C0.152357 44.0896 0 42.0636 0 40.0028Z" fill="#696FE6"/>
</svg>
