<svg width="108" height="38" viewBox="0 0 108 38" fill="none" xmlns="http://www.w3.org/2000/svg">
<path d="M18.7849 0.5C8.15631 0.5 0 8.53307 0 19.0011C0 19.9542 0.071547 20.8912 0.209707 21.8072L1.14308 21.6706C1.01171 20.7997 0.943615 19.9083 0.943615 19.0011C0.943615 9.04634 8.67745 1.42936 18.7849 1.42936C28.8923 1.42936 36.6245 9.04629 36.6245 19.0011C36.6245 19.9083 36.5564 20.7997 36.425 21.6706L37.3584 21.8072C37.4966 20.8912 37.5681 19.9542 37.5681 19.0011C37.5681 8.53313 29.4136 0.5 18.7849 0.5Z" fill="#696FE6"/>
<path d="M14.5588 16.2263C15.8795 16.2263 16.9066 15.2146 16.9066 13.9139C16.9066 12.6132 15.8795 11.6016 14.5588 11.6016C13.2382 11.6016 12.211 12.6132 12.211 13.9139C12.211 15.2146 13.3115 16.2263 14.5588 16.2263Z" fill="#696FE6"/>
<path d="M13.1269 24.539L23.397 14.3764L35.6893 26.4537C32.8166 32.9541 26.2585 37.5 18.634 37.5C11.9599 37.5 6.10289 34.0167 2.81964 28.7883L10.3733 21.8142L13.1269 24.539Z" fill="#696FE6"/>
<path fill-rule="evenodd" clip-rule="evenodd" d="M88.2808 35.6501H88.7535C88.9963 35.6501 89.2235 35.5581 89.3938 35.4018C89.4948 35.3092 89.5757 35.1941 89.6281 35.0621L89.8483 34.5078H92.2904L92.5106 35.0621C92.5772 35.2299 92.6899 35.3705 92.8312 35.4721C92.9886 35.5853 93.1814 35.6501 93.3851 35.6501H93.9156L91.6551 30.1004H90.5413L88.2808 35.6501ZM91.9108 33.5518L91.0693 31.4129L90.2278 33.5518H91.9108Z" fill="#696FE6"/>
<path d="M84.0547 31.6398L85.007 30.1004H86.2137L85.2615 31.6317C85.1246 31.8531 84.996 32.0475 84.8756 32.215C84.7607 32.377 84.6485 32.5201 84.5391 32.6444L86.4025 35.6501H85.6411C85.504 35.6501 85.3709 35.6206 85.2501 35.5661C85.0824 35.4905 84.9383 35.3666 84.8392 35.2065L83.6196 33.2358C83.5156 33.2628 83.4062 33.2817 83.2912 33.2925C83.1818 33.3033 83.0641 33.3087 82.9382 33.3087H82.8315V35.6501H81.7069V30.1004H82.8315V32.3203H82.9218C83.2119 32.3203 83.4308 32.2771 83.5786 32.1907C83.6407 32.1521 83.7047 32.0973 83.7707 32.0263C83.8617 31.9283 83.9564 31.7995 84.0547 31.6398Z" fill="#696FE6"/>
<path fill-rule="evenodd" clip-rule="evenodd" d="M78.7004 33.0939C78.8965 32.9781 79.0568 32.8363 79.1812 32.6687C79.3697 32.4148 79.4639 32.1151 79.4639 31.7694C79.4639 31.2671 79.2542 30.8647 78.8348 30.5622C78.4214 30.2544 77.8744 30.1004 77.1936 30.1004H75.1329V35.6501H76.3547V33.5275H77.2392L78.2126 35.1578C78.293 35.2924 78.4077 35.4046 78.5443 35.4877C78.7151 35.5916 78.9201 35.6501 79.1349 35.6501H79.8286L78.3698 33.252C78.4894 33.2062 78.5997 33.1535 78.7004 33.0939ZM77.9412 31.2914C77.8026 31.1814 77.6216 31.1162 77.3982 31.0958C77.3474 31.0912 77.2944 31.0888 77.2392 31.0888H76.3547V32.5471H77.2392C77.2944 32.5471 77.3474 32.5449 77.3982 32.5405C77.6216 32.5209 77.8026 32.4583 77.9412 32.3527C78.1175 32.2177 78.2057 32.0394 78.2057 31.818C78.2057 31.5965 78.1175 31.421 77.9412 31.2914Z" fill="#696FE6"/>
<path fill-rule="evenodd" clip-rule="evenodd" d="M70.4373 35.6501C71.2392 35.6501 71.9092 35.3877 72.4474 34.8629C72.9856 34.3329 73.2547 33.6716 73.2547 32.8792C73.2547 32.0868 72.9856 31.4255 72.4474 30.8955C71.9092 30.3654 71.2392 30.1004 70.4373 30.1004C69.6354 30.1004 68.9653 30.3654 68.4271 30.8955C67.889 31.4255 67.6199 32.0868 67.6199 32.8792C67.6199 33.6716 67.889 34.3329 68.4271 34.8629C68.9653 35.3877 69.6354 35.6501 70.4373 35.6501ZM70.4373 31.0923C69.9583 31.0923 69.5573 31.2628 69.2344 31.604C68.9169 31.9451 68.7581 32.3702 68.7581 32.8792C68.7581 33.3882 68.9169 33.8133 69.2344 34.1544C69.5573 34.4903 69.9583 34.6582 70.4373 34.6582C70.9163 34.6582 71.3145 34.4903 71.632 34.1544C71.955 33.8133 72.1164 33.3882 72.1164 32.8792C72.1164 32.3702 71.955 31.9451 71.632 31.604C71.3145 31.2628 70.9163 31.0923 70.4373 31.0923Z" fill="#696FE6"/>
<path d="M63.0082 31.0923C62.5149 31.0923 62.102 31.2628 61.7695 31.604C61.4425 31.9451 61.279 32.3702 61.279 32.8792C61.279 33.3882 61.4425 33.8133 61.7695 34.1544C62.102 34.4903 62.5149 34.6582 63.0082 34.6582C63.3795 34.6582 63.7009 34.5638 63.9725 34.3749C64.2441 34.1807 64.4325 33.9183 64.5378 33.5877H63.9068C63.3302 33.5877 62.8835 33.1442 62.8835 32.6273H65.7183C65.8249 33.435 65.5652 34.2827 64.9535 34.8865C64.4325 35.3956 63.7841 35.6501 63.0082 35.6501C62.1824 35.6501 61.4924 35.3877 60.9381 34.8629C60.3839 34.3329 60.1068 33.6716 60.1068 32.8792C60.1068 32.0868 60.3839 31.4255 60.9381 30.8955C61.4924 30.3654 62.1824 30.1004 63.0082 30.1004C63.7841 30.1004 64.4963 30.3891 65.0616 30.9348L64.3632 31.6591C63.9682 31.285 63.5233 31.0923 63.0082 31.0923Z" fill="#696FE6"/>
<path d="M108 0.502212V5.31196H101.082V17.3363H100.268C98.0202 17.3363 96.1982 15.5419 96.1982 13.3282V5.31196H89.28V0.502212H108Z" fill="#696FE6"/>
<path d="M101.084 19.741H96.2V24.5508H101.084V19.741Z" fill="#696FE6"/>
<path d="M75.4433 22.1458C75.4433 23.4739 74.3501 24.5506 73.0016 24.5506C71.6531 24.5506 70.5599 23.4739 70.5599 22.1458C70.5599 20.8176 71.6531 19.7409 73.0016 19.7409C74.3501 19.7409 75.4433 20.8176 75.4433 22.1458Z" fill="#696FE6"/>
<path d="M89.2813 24.5507H85.9892C84.7289 24.5507 83.5397 23.9756 82.769 22.9933L77.073 15.7333L77.0712 15.733C80.4899 15.0363 82.3617 11.7249 82.3617 8.91921C82.3617 6.91516 80.9373 5.31192 78.9025 5.31192C77.0712 5.31191 75.4433 6.76485 75.4433 8.71879V17.3362H74.6295C72.3819 17.3362 70.5599 15.5417 70.5599 13.3281V8.71878C70.5599 8.35806 70.6006 7.07547 70.682 6.71474C71.5514 3.36099 74.9056 0.502212 78.4955 0.502212H79.1059C83.7962 0.604865 87.245 4.28894 87.245 8.71878C87.245 10.6531 86.0242 14.5304 82.4141 15.7329H82.4171L89.2813 24.5507Z" fill="#696FE6"/>
<path d="M68.9347 24.5508H66.7038C65.0916 24.5508 63.6313 23.6133 62.9805 22.1606L57.9466 10.9233L52.9131 22.1605C52.2623 23.6133 50.802 24.5508 49.1897 24.5508H46.9589L57.54 0.502212H58.3539L68.9347 24.5508Z" fill="#696FE6"/>
<path d="M55.5045 24.5507L57.9462 19.741L60.388 24.5507H55.5045Z" fill="#696FE6"/>
</svg>
