<svg width="684" height="685" viewBox="0 0 684 685" fill="none" xmlns="http://www.w3.org/2000/svg">
<g opacity="0.05">
<path d="M239.003 444.889L425.987 257.023L649.789 480.284C597.486 600.45 478.086 684.485 339.27 684.485C217.756 684.485 111.12 620.093 51.3428 523.44L188.87 394.519L239.003 444.889Z" fill="#696FE6"/>
<path d="M265.073 291.22C289.118 291.22 307.819 272.519 307.819 248.474C307.819 224.429 289.118 205.728 265.073 205.728C241.029 205.728 222.327 224.429 222.327 248.474C222.327 272.519 242.364 291.22 265.073 291.22Z" fill="#696FE6"/>
<path fill-rule="evenodd" clip-rule="evenodd" d="M0 342.515C0 149.001 148.501 0.499573 342.016 0.499573C535.531 0.499573 684 149.002 684 342.515C684 360.135 682.697 377.457 680.182 394.39L663.177 391.864C665.569 375.764 666.809 359.286 666.809 342.515C666.809 158.494 526.035 17.6907 342.016 17.6907C157.996 17.6907 17.1912 158.495 17.1912 342.515C17.1912 359.286 18.431 375.764 20.8227 391.864L3.81812 394.39C1.30265 377.457 0 360.135 0 342.515Z" fill="#696FE6"/>
</g>
</svg>
