<svg width="28" height="35" viewBox="0 0 28 35" fill="none" xmlns="http://www.w3.org/2000/svg">
<path d="M28 14C28 23.482 14 35 14 35C14 35 0 23.482 0 14C0 6.26801 6.26801 0 14 0C21.732 0 28 6.26801 28 14Z" fill="#656CFF"/>
<path d="M10.8389 17.146L16.5809 11.377L23.4535 18.2329C21.8473 21.923 18.1808 24.5036 13.9179 24.5036C10.1864 24.5036 6.91182 22.5262 5.07617 19.5582L9.29941 15.5992L10.8389 17.146Z" fill="white"/>
<path d="M11.6398 12.4271C12.3782 12.4271 12.9525 11.8528 12.9525 11.1144C12.9525 10.376 12.3782 9.80176 11.6398 9.80176C10.9014 9.80176 10.3271 10.376 10.3271 11.1144C10.3271 11.8528 10.9425 12.4271 11.6398 12.4271Z" fill="white"/>
<path fill-rule="evenodd" clip-rule="evenodd" d="M3.5 14.0027C3.5 8.06024 8.06024 3.5 14.0027 3.5C19.9453 3.5 24.5045 8.06027 24.5045 14.0027C24.5045 14.5438 24.4645 15.0758 24.3873 15.5957L23.8651 15.5182C23.9385 15.0238 23.9766 14.5178 23.9766 14.0027C23.9766 8.35176 19.6537 4.02791 14.0027 4.02791C8.35179 4.02791 4.02791 8.3518 4.02791 14.0027C4.02791 14.5178 4.06599 15.0238 4.13943 15.5182L3.61725 15.5957C3.54 15.0757 3.5 14.5438 3.5 14.0027Z" fill="white"/>
</svg>
