<svg width="160" height="160" viewBox="0 0 160 160" fill="none" xmlns="http://www.w3.org/2000/svg">
<path d="M96.301 40.0236V21.9604C96.301 21.4082 95.8533 20.9604 95.301 20.9604H3.96582C3.41353 20.9604 2.96582 21.4082 2.96582 21.9604V84.9993C2.96582 85.5516 3.41354 85.9993 3.96582 85.9993H13.3575C13.9098 85.9993 14.3575 86.4471 14.3575 86.9993V99.9601C14.3575 100.851 15.4337 101.297 16.0639 100.668L30.4669 86.2916C30.6544 86.1044 30.9084 85.9993 31.1733 85.9993H95.301C95.8533 85.9993 96.301 85.5516 96.301 84.9993V65.3215" stroke="#696FE5" stroke-width="4" stroke-miterlimit="10" stroke-linecap="round"/>
<path d="M63.7217 73.2159V54.48C63.7217 53.9277 64.1694 53.48 64.7217 53.48H156.057C156.609 53.48 157.057 53.9277 157.057 54.48V117.519C157.057 118.071 156.609 118.519 156.057 118.519H146.643C146.09 118.519 145.643 118.967 145.643 119.519V132.46C145.643 133.35 144.567 133.796 143.937 133.168L129.533 118.811C129.346 118.624 129.092 118.519 128.827 118.519H64.7217C64.1694 118.519 63.7217 118.071 63.7217 117.519V86.6722" stroke="#696FE5" stroke-width="4" stroke-miterlimit="10" stroke-linecap="square"/>
</svg>
