<svg width="160" height="160" viewBox="0 0 160 160" fill="none" xmlns="http://www.w3.org/2000/svg">
<path d="M137.999 4.51562H22.2715C21.7192 4.51562 21.2715 4.96334 21.2715 5.51563V155.295C21.2715 155.847 21.7192 156.295 22.2715 156.295H137.999C138.552 156.295 138.999 155.847 138.999 155.295V5.51562C138.999 4.96334 138.552 4.51562 137.999 4.51562Z" stroke="#696FE5" stroke-width="4" stroke-miterlimit="10"/>
<path d="M116.658 43.4844V54.1003C116.658 54.6525 116.211 55.1003 115.658 55.1003H44.5908C44.0385 55.1003 43.5908 54.6525 43.5908 54.1003V30.8076C43.5908 30.2553 44.0385 29.8076 44.5908 29.8076H116.658" stroke="#696FE5" stroke-width="4" stroke-miterlimit="10" stroke-linecap="round"/>
<path d="M98.7666 74.6323V98.6135" stroke="#696FE5" stroke-width="4" stroke-miterlimit="10"/>
<path d="M73.4968 86.623H49.4922" stroke="#696FE5" stroke-width="4" stroke-miterlimit="10"/>
<path d="M69.9603 110.698L53.0049 127.677" stroke="#696FE5" stroke-width="4" stroke-miterlimit="10"/>
<path d="M69.9603 127.677L53.0049 110.698" stroke="#696FE5" stroke-width="4" stroke-miterlimit="10"/>
<path d="M110.756 86.623H86.7744" stroke="#696FE5" stroke-width="4" stroke-miterlimit="10"/>
<path d="M107.243 108.521L90.2871 125.476" stroke="#696FE5" stroke-width="4" stroke-miterlimit="10"/>
<path d="M87.7812 110.699H94.1278" stroke="#696FE5" stroke-width="4" stroke-miterlimit="10"/>
<path d="M103.401 123.297H109.748" stroke="#696FE5" stroke-width="4" stroke-miterlimit="10"/>
</svg>
