<svg width="160" height="160" viewBox="0 0 160 160" fill="none" xmlns="http://www.w3.org/2000/svg">
<path d="M126.015 98.1991V150.098C126.015 150.65 125.567 151.098 125.015 151.098H3.89746C3.34518 151.098 2.89746 150.65 2.89746 150.098V64.5928C2.89746 64.0405 3.34518 63.5928 3.89746 63.5928H84.8733" stroke="#696FE5" stroke-width="4" stroke-miterlimit="10" stroke-linecap="round"/>
<path d="M107.833 102.42C107.735 102.578 107.595 102.706 107.429 102.789L87.3516 112.802C86.6867 113.134 85.9053 112.65 85.9053 111.907V89.4247C85.9053 89.239 85.957 89.0569 86.0547 88.8989L133.699 11.8313C133.99 11.3611 134.607 11.216 135.077 11.5074L155.177 23.9746C155.646 24.2654 155.791 24.8811 155.501 25.3504L107.833 102.42Z" stroke="#696FE5" stroke-width="4" stroke-miterlimit="10" stroke-linecap="square"/>
<path d="M126.806 22.9839L146.74 35.3402" stroke="#696FE5" stroke-width="4" stroke-miterlimit="10" stroke-linecap="square"/>
<path d="M70.4054 116.052H26.0146" stroke="#696FE5" stroke-width="4" stroke-miterlimit="10" stroke-linecap="round"/>
<path d="M58.243 98.6606H26.0146" stroke="#696FE5" stroke-width="4" stroke-miterlimit="10" stroke-linecap="round"/>
</svg>
