<svg width="160" height="160" viewBox="0 0 160 160" fill="none" xmlns="http://www.w3.org/2000/svg">
<g clip-path="url(#clip0_4011_11174)">
<path d="M135.404 117.441C134.913 117.275 134.376 117.31 133.91 117.538C133.445 117.766 133.089 118.169 132.919 118.659L126.633 137.491L124.845 133.913C124.614 133.452 124.21 133.101 123.72 132.938C123.231 132.775 122.697 132.813 122.236 133.044C121.775 133.274 121.424 133.679 121.261 134.168C121.098 134.657 121.136 135.191 121.366 135.652L125.217 143.404C125.387 143.749 125.656 144.035 125.99 144.227C126.323 144.418 126.706 144.506 127.089 144.48C127.473 144.453 127.84 144.313 128.144 144.077C128.447 143.841 128.674 143.52 128.795 143.155L136.547 119.876C136.708 119.401 136.679 118.882 136.466 118.428C136.253 117.974 135.872 117.62 135.404 117.441Z" fill="#696FE5"/>
<path d="M158.062 16.4971H49.4662C48.9522 16.4971 48.4593 16.7012 48.0959 17.0647C47.7325 17.4281 47.5283 17.921 47.5283 18.435V158.062C47.5283 158.576 47.7325 159.069 48.0959 159.432C48.4593 159.796 48.9522 160 49.4662 160H142.609C143.122 159.998 143.614 159.792 143.975 159.428L159.503 143.925C159.828 143.564 160.006 143.094 160 142.609V18.3853C159.987 17.88 159.777 17.3997 159.415 17.047C159.053 16.6942 158.568 16.4969 158.062 16.4971ZM144.497 153.391V144.497H153.392L144.497 153.391ZM156.125 140.621H142.609C142.095 140.621 141.602 140.825 141.239 141.189C140.875 141.552 140.671 142.045 140.671 142.559V156.124H51.4041V20.3728H156.125V140.621Z" fill="#696FE5"/>
<path d="M109.814 10.7827C109.827 11.0372 109.89 11.2866 109.999 11.5167C110.109 11.7468 110.262 11.9531 110.452 12.1238C110.641 12.2946 110.862 12.4264 111.102 12.5117C111.342 12.597 111.596 12.6342 111.851 12.6212C112.105 12.6081 112.355 12.5451 112.585 12.4356C112.815 12.3262 113.021 12.1725 113.192 11.9833C113.363 11.7941 113.495 11.5732 113.58 11.3331C113.665 11.093 113.703 10.8384 113.689 10.5839L113.292 2.83237C113.283 2.57668 113.222 2.32547 113.114 2.09362C113.005 1.86177 112.852 1.65398 112.662 1.48256C112.472 1.31114 112.25 1.17956 112.008 1.09562C111.766 1.01168 111.51 0.97708 111.255 0.993868L2.8324 6.88205C2.5778 6.89477 2.32821 6.9576 2.09793 7.06694C1.86765 7.17627 1.66121 7.32996 1.49042 7.51921C1.31964 7.70846 1.18787 7.92954 1.10267 8.1698C1.01746 8.41005 0.980496 8.66475 0.993886 8.91932L8.59637 148.397C8.60909 148.652 8.67192 148.901 8.78125 149.132C8.89058 149.362 9.04428 149.568 9.23353 149.739C9.42277 149.91 9.64386 150.042 9.88411 150.127C10.1244 150.212 10.3791 150.249 10.6336 150.236L41.8137 148.521C42.0683 148.509 42.3179 148.446 42.5482 148.337C42.7785 148.227 42.9849 148.074 43.1557 147.884C43.3265 147.695 43.4583 147.474 43.5435 147.234C43.6287 146.993 43.6656 146.739 43.6523 146.484C43.6538 146.225 43.6005 145.969 43.4959 145.732C43.3914 145.494 43.2379 145.282 43.0455 145.109C42.8531 144.935 42.6263 144.804 42.3797 144.724C42.1332 144.644 41.8726 144.618 41.615 144.646L12.3728 146.236L4.96904 10.6584L109.516 4.96902L109.814 10.7827Z" fill="#696FE5"/>
<path d="M41.6147 35.7764L19.975 36.9441C19.461 36.9441 18.9681 37.1482 18.6047 37.5117C18.2413 37.8751 18.0371 38.368 18.0371 38.882C18.0371 39.3959 18.2413 39.8888 18.6047 40.2522C18.9681 40.6157 19.461 40.8198 19.975 40.8198L41.6147 39.6521C41.8693 39.6394 42.1189 39.5766 42.3492 39.4673C42.5795 39.3579 42.7859 39.2042 42.9567 39.015C43.1275 38.8257 43.2593 38.6046 43.3445 38.3644C43.4297 38.1241 43.4666 37.8694 43.4532 37.6149C43.4407 37.1312 43.2429 36.6709 42.9008 36.3288C42.5587 35.9867 42.0984 35.7889 41.6147 35.7764Z" fill="#696FE5"/>
<path d="M41.6149 51.4038L20.8695 52.497C20.3556 52.497 19.8627 52.7011 19.4992 53.0646C19.1358 53.428 18.9316 53.9209 18.9316 54.4349C18.9316 54.9488 19.1358 55.4417 19.4992 55.8051C19.8627 56.1686 20.3556 56.3727 20.8695 56.3727L41.6646 55.2796C41.9192 55.2669 42.1687 55.204 42.399 55.0947C42.6293 54.9854 42.8357 54.8317 43.0065 54.6424C43.1773 54.4532 43.3091 54.2321 43.3943 53.9918C43.4795 53.7516 43.5165 53.4969 43.5031 53.2423C43.4901 52.7502 43.2855 52.2826 42.9328 51.9392C42.58 51.5957 42.1072 51.4036 41.6149 51.4038Z" fill="#696FE5"/>
<path d="M41.6154 66.9321L21.7396 68.0253C21.2257 68.0253 20.7328 68.2295 20.3694 68.5929C20.0059 68.9563 19.8018 69.4492 19.8018 69.9632C19.8018 70.4771 20.0059 70.97 20.3694 71.3335C20.7328 71.6969 21.2257 71.9011 21.7396 71.9011L41.6154 70.8079C41.87 70.7952 42.1196 70.7323 42.3499 70.623C42.5802 70.5137 42.7866 70.36 42.9574 70.1707C43.1282 69.9815 43.2599 69.7604 43.3451 69.5202C43.4303 69.2799 43.4673 69.0252 43.4539 68.7706C43.4539 68.283 43.2602 67.8154 42.9154 67.4706C42.5706 67.1258 42.103 66.9321 41.6154 66.9321Z" fill="#696FE5"/>
<path d="M41.6153 82.4346L22.5346 83.5277C22.0206 83.5277 21.5277 83.7319 21.1643 84.0953C20.8009 84.4588 20.5967 84.9517 20.5967 85.4656C20.5967 85.9796 20.8009 86.4725 21.1643 86.8359C21.5277 87.1993 22.0206 87.4035 22.5346 87.4035L41.6153 86.3103C42.1251 86.2783 42.6016 86.0463 42.9413 85.6648C43.2809 85.2833 43.4562 84.7831 43.429 84.2731C43.4323 84.0328 43.3878 83.7943 43.2981 83.5714C43.2084 83.3485 43.0754 83.1456 42.9066 82.9745C42.7379 82.8035 42.5368 82.6677 42.3152 82.575C42.0935 82.4823 41.8556 82.4345 41.6153 82.4346Z" fill="#696FE5"/>
<path d="M41.6148 98.0371L23.3539 99.0309C22.8399 99.0309 22.347 99.2351 21.9836 99.5985C21.6202 99.9619 21.416 100.455 21.416 100.969C21.416 101.483 21.6202 101.976 21.9836 102.339C22.347 102.702 22.8399 102.907 23.3539 102.907L41.5899 101.888C41.8445 101.875 42.0941 101.812 42.3244 101.703C42.5547 101.594 42.7611 101.44 42.9319 101.251C43.1027 101.062 43.2344 100.841 43.3197 100.6C43.4049 100.36 43.4418 100.105 43.4284 99.8508C43.41 99.3756 43.213 98.9249 42.8768 98.5887C42.5406 98.2525 42.0899 98.0555 41.6148 98.0371Z" fill="#696FE5"/>
<path d="M41.6153 113.54L24.224 114.484C23.7101 114.484 23.2172 114.688 22.8537 115.052C22.4903 115.415 22.2861 115.908 22.2861 116.422C22.2861 116.936 22.4903 117.429 22.8537 117.792C23.2172 118.156 23.7101 118.36 24.224 118.36L41.6153 117.416C41.8699 117.403 42.1195 117.34 42.3498 117.231C42.5801 117.122 42.7865 116.968 42.9573 116.779C43.1281 116.589 43.2598 116.368 43.345 116.128C43.4302 115.888 43.4672 115.633 43.4538 115.379C43.4413 114.895 43.2435 114.435 42.9014 114.092C42.5593 113.75 42.099 113.553 41.6153 113.54Z" fill="#696FE5"/>
<path d="M88.2484 35.7766H119.279C119.793 35.7766 120.286 35.5725 120.65 35.2091C121.013 34.8456 121.217 34.3527 121.217 33.8388C121.217 33.3248 121.013 32.8319 120.65 32.4685C120.286 32.1051 119.793 31.9009 119.279 31.9009H88.2484C87.7345 31.9009 87.2416 32.1051 86.8781 32.4685C86.5147 32.8319 86.3105 33.3248 86.3105 33.8388C86.3105 34.3527 86.5147 34.8456 86.8781 35.2091C87.2416 35.5725 87.7345 35.7766 88.2484 35.7766Z" fill="#696FE5"/>
<path d="M64.9936 51.4036H142.608C143.122 51.4036 143.615 51.1994 143.979 50.836C144.342 50.4726 144.546 49.9797 144.546 49.4657C144.546 48.9518 144.342 48.4588 143.979 48.0954C143.615 47.732 143.122 47.5278 142.608 47.5278H64.9936C64.4796 47.5278 63.9867 47.732 63.6233 48.0954C63.2598 48.4588 63.0557 48.9518 63.0557 49.4657C63.0557 49.9797 63.2598 50.4726 63.6233 50.836C63.9867 51.1994 64.4796 51.4036 64.9936 51.4036Z" fill="#696FE5"/>
<path d="M64.9936 66.9315H142.608C143.063 66.8581 143.476 66.6252 143.775 66.2747C144.073 65.9242 144.237 65.4789 144.237 65.0185C144.237 64.5582 144.073 64.1129 143.775 63.7623C143.476 63.4118 143.063 63.1789 142.608 63.1055H64.9936C64.4796 63.1055 63.9867 63.3096 63.6233 63.6731C63.2598 64.0365 63.0557 64.5294 63.0557 65.0434C63.0557 65.5573 63.2598 66.0502 63.6233 66.4136C63.9867 66.7771 64.4796 66.9812 64.9936 66.9812V66.9315Z" fill="#696FE5"/>
<path d="M64.9936 82.4344H88.273C88.787 82.4344 89.2799 82.2302 89.6433 81.8668C90.0068 81.5033 90.2109 81.0104 90.2109 80.4965C90.2109 79.9825 90.0068 79.4896 89.6433 79.1262C89.2799 78.7628 88.787 78.5586 88.273 78.5586H64.9936C64.4796 78.5586 63.9867 78.7628 63.6233 79.1262C63.2598 79.4896 63.0557 79.9825 63.0557 80.4965C63.0557 81.0104 63.2598 81.5033 63.6233 81.8668C63.9867 82.2302 64.4796 82.4344 64.9936 82.4344Z" fill="#696FE5"/>
<path d="M64.9936 97.8885H142.608C143.122 97.8885 143.615 97.6843 143.979 97.3209C144.342 96.9574 144.546 96.4645 144.546 95.9506C144.546 95.4366 144.342 94.9437 143.979 94.5803C143.615 94.2169 143.122 94.0127 142.608 94.0127H64.9936C64.4796 94.0127 63.9867 94.2169 63.6233 94.5803C63.2598 94.9437 63.0557 95.4366 63.0557 95.9506C63.0557 96.4645 63.2598 96.9574 63.6233 97.3209C63.9867 97.6843 64.4796 97.8885 64.9936 97.8885Z" fill="#696FE5"/>
<path d="M64.9936 113.466H103.776C104.29 113.466 104.783 113.261 105.146 112.898C105.51 112.535 105.714 112.042 105.714 111.528C105.714 111.014 105.51 110.521 105.146 110.157C104.783 109.794 104.29 109.59 103.776 109.59H64.9936C64.4796 109.59 63.9867 109.794 63.6233 110.157C63.2598 110.521 63.0557 111.014 63.0557 111.528C63.0557 112.042 63.2598 112.535 63.6233 112.898C63.9867 113.261 64.4796 113.466 64.9936 113.466Z" fill="#696FE5"/>
</g>
<defs>
<clipPath id="clip0_4011_11174">
<rect width="160" height="160" fill="white"/>
</clipPath>
</defs>
</svg>
